<?xml version="1.0" standalone="no"?>
<!DOCTYPE svg PUBLIC "-//W3C//DTD SVG 20010904//EN" "http://www.w3.org/TR/2001/REC-SVG-20010904/DTD/svg10.dtd">
<!-- Created using Krita: https://krita.org -->
<svg xmlns="http://www.w3.org/2000/svg" 
    xmlns:xlink="http://www.w3.org/1999/xlink"
    xmlns:krita="http://krita.org/namespaces/svg/krita"
    xmlns:sodipodi="http://sodipodi.sourceforge.net/DTD/sodipodi-0.dtd"
    width="216pt"
    height="77.76pt"
    viewBox="0 0 216 77.76">
<defs/>
<path id="shape0" transform="translate(194.850004532143, 24.5000021980371)" fill="#c96e00" fill-rule="evenodd" stroke="#b74100" stroke-width="3.6" stroke-linecap="square" stroke-linejoin="miter" stroke-miterlimit="2" d="M0 0L4.72382 8.85073" sodipodi:nodetypes="cc"/><path id="shape1" transform="translate(194.310004519583, 42.8966734168688)" fill="#c96e00" fill-rule="evenodd" stroke="#b74100" stroke-width="3.6" stroke-linecap="square" stroke-linejoin="miter" stroke-miterlimit="2" d="M0 8.24333L4.62743 0" sodipodi:nodetypes="cc"/><path id="shape2" transform="matrix(1 0 0 0.975441895719001 -4.32000016889583 13.0527421558579)" fill="none" stroke="#424242" stroke-width="5.76" stroke-linecap="square" stroke-linejoin="bevel" d="M0 52.1479C10.8502 35.3349 18.0502 23.7218 21.6 17.3086C38.1697 -12.6263 54.6 2.66862 61.56 16.5886C68.52 30.5086 72.1313 38.5683 72.36 38.9086C84.5545 57.0576 93.96 52.7086 103.68 38.5486C113.4 24.3886 111.697 24.9552 114.12 19.8286C121.776 3.63342 141.72 -14.0114 154.08 17.3086C166.44 48.6286 162.841 38.8083 163.8 40.7086C170.173 53.3411 187.08 60.6286 198.36 39.6286" sodipodi:nodetypes="cszszszsc"/><path id="shape0" transform="matrix(1 0 0 -0.975441895719001 -5.04000019704512 62.9472738720609)" fill="none" stroke="#424242" stroke-width="5.76" stroke-linecap="square" stroke-linejoin="bevel" d="M0 53.9932C6.77016 43.1264 19.5582 23.7218 23.108 17.3086C39.6777 -12.6263 56.108 2.66863 63.068 16.5886C70.028 30.5086 73.6393 38.5683 73.868 38.9086C86.0625 57.0576 95.468 52.7086 105.188 38.5486C114.908 24.3886 113.205 24.9552 115.628 19.8286C123.284 3.63343 143.228 -14.0114 155.588 17.3086C167.948 48.6286 164.349 38.8083 165.308 40.7086C171.681 53.3411 188.588 60.6286 199.868 39.6286" sodipodi:nodetypes="cszszszsc"/><path id="shape01" transform="matrix(0.99999999022136 0 0 -0.975441886180506 -4.96730495799971 62.9335474682241)" fill="none" stroke="#0046aa" stroke-width="4.32" stroke-linecap="square" stroke-linejoin="bevel" d="M0 53.9932C6.77016 43.1264 19.5582 23.7218 23.108 17.3086C39.6777 -12.6263 56.108 2.66864 63.068 16.5886C70.028 30.5086 73.6393 38.5683 73.868 38.9086C86.0625 57.0576 95.468 52.7086 105.188 38.5486C114.908 24.3886 113.205 24.955 115.628 19.8286C123.284 3.63344 143.228 -14.0114 155.588 17.3086C167.948 48.6286 164.349 38.8082 165.308 40.7086C168.633 47.2989 175.167 52.6485 182.204 52.7056C188.655 52.7579 194.818 49.5059 200.214 39.4615" sodipodi:nodetypes="cszszszscc"/><path id="shape02" transform="matrix(0.999999978478436 0 0 0.975441874725966 -4.33446832873936 13.1289589672615)" fill="none" stroke="#f2f2f2" stroke-width="4.32" stroke-linecap="square" stroke-linejoin="bevel" d="M0 52.1481C10.8502 35.3351 18.0502 23.722 21.6 17.3088C38.1697 -12.6261 54.6 2.66882 61.56 16.5888C68.52 30.5088 72.1313 38.5685 72.36 38.9088C84.5545 57.0578 93.96 52.7088 103.68 38.5488C113.4 24.3888 111.697 24.9554 114.12 19.8288C121.775 3.63299 141.72 -14.0112 154.08 17.3088C166.44 48.6288 162.841 38.8085 163.8 40.7088C170.175 53.3405 187.08 60.6288 198.36 39.6288" sodipodi:nodetypes="cszszszcc"/><path id="shape03" transform="matrix(0.999999987984614 0 0 0.999999987984614 11.2642107829494 35.1326339741941)" fill="none" stroke="#404040" stroke-width="5.76" stroke-linecap="square" stroke-linejoin="miter" stroke-miterlimit="2" d="M0 0L2.35467 3.94566" sodipodi:nodetypes="cc"/><path id="shape3" transform="translate(8.91904580324313, 32.058130101191)" fill="none" stroke="#0046aa" stroke-width="4.32" stroke-linecap="square" stroke-linejoin="miter" stroke-miterlimit="2" d="M0 0L6.03 9.27" sodipodi:nodetypes="cc"/><path id="shape04" transform="matrix(0.999999993008594 0 0 -0.975441888899286 101.879999248924 43.6976279417541)" fill="none" stroke="#404040" stroke-width="5.76" stroke-linecap="square" stroke-linejoin="bevel" d="M0 16.1749C9.72 2.01485 6.42993 5.1264 8.85293 0" sodipodi:nodetypes="cc"/><path id="shape05" transform="matrix(1.00000000097559 0 0 -0.975441896670628 100.619999258212 45.3751360481885)" fill="none" stroke="#0046aa" stroke-width="4.32" stroke-linecap="square" stroke-linejoin="bevel" d="M0 19.8322C9.72 5.67218 8.332 5.1264 10.755 0" sodipodi:nodetypes="cc"/>
</svg>
