<?xml version="1.0" standalone="no"?>
<!DOCTYPE svg PUBLIC "-//W3C//DTD SVG 20010904//EN" "http://www.w3.org/TR/2001/REC-SVG-20010904/DTD/svg10.dtd">
<!-- Created using Krita: https://krita.org -->
<svg xmlns="http://www.w3.org/2000/svg" 
    xmlns:xlink="http://www.w3.org/1999/xlink"
    xmlns:krita="http://krita.org/namespaces/svg/krita"
    xmlns:sodipodi="http://sodipodi.sourceforge.net/DTD/sodipodi-0.dtd"
    width="216pt"
    height="77.76pt"
    viewBox="0 0 216 77.76">
<defs/>
<path id="shape0" transform="matrix(-0.999999970840426 0 0 0.999999970840426 126.451491716532 17.5500014935549)" fill="#1a1a1a" fill-rule="evenodd" stroke-opacity="0" stroke="#000000" stroke-width="0" stroke-linecap="square" stroke-linejoin="bevel" d="M23.3154 57.2616C15.4374 42.5916 8.68949 27.81 0.811492 13.14C-1.28035 6.42816 1.07431 1.73173 3.33148 0L24.0855 39.51Z" sodipodi:nodetypes="ccccc"/><path id="shape0" transform="translate(195.930004603634, 16.3000023171891)" fill="#c96e00" fill-rule="evenodd" stroke="#b74100" stroke-width="3.6" stroke-linecap="square" stroke-linejoin="miter" stroke-miterlimit="2" d="M0 0L4.72382 8.85073" sodipodi:nodetypes="cc"/><path id="shape1" transform="translate(195.390004591074, 34.6966735360209)" fill="#c96e00" fill-rule="evenodd" stroke="#b74100" stroke-width="3.6" stroke-linecap="square" stroke-linejoin="miter" stroke-miterlimit="2" d="M0 8.24333L4.62743 0" sodipodi:nodetypes="cc"/><path id="shape2" transform="matrix(1 0 0 0.975441895719001 -3.24000009740462 4.8527422750099)" fill="none" stroke="#424242" stroke-width="5.76" stroke-linecap="square" stroke-linejoin="bevel" d="M0 52.1479C10.8502 35.3349 18.0502 23.7218 21.6 17.3086C38.1697 -12.6263 54.6 2.66862 61.56 16.5886C68.52 30.5086 72.1313 38.5683 72.36 38.9086C84.5545 57.0576 93.96 52.7086 103.68 38.5486C113.4 24.3886 111.697 24.9552 114.12 19.8286C121.776 3.63342 141.72 -14.0114 154.08 17.3086C166.44 48.6286 162.841 38.8083 163.8 40.7086C170.173 53.3411 187.08 60.6286 198.36 39.6286" sodipodi:nodetypes="cszszszsc"/><path id="shape01" transform="matrix(1 0 0 -0.975441895719001 -3.9600001255539 54.7472739912129)" fill="none" stroke="#424242" stroke-width="5.76" stroke-linecap="square" stroke-linejoin="bevel" d="M0 53.9932C6.77016 43.1264 19.5582 23.7218 23.108 17.3086C39.6777 -12.6263 56.108 2.66863 63.068 16.5886C70.028 30.5086 73.6393 38.5683 73.868 38.9086C86.0625 57.0576 95.468 52.7086 105.188 38.5486C114.908 24.3886 113.205 24.9552 115.628 19.8286C123.284 3.63343 143.228 -14.0114 155.588 17.3086C167.948 48.6286 164.349 38.8083 165.308 40.7086C171.681 53.3411 188.588 60.6286 199.868 39.6286" sodipodi:nodetypes="cszszszsc"/><path id="shape02" transform="matrix(0.99999999022136 0 0 -0.975441886180506 -3.88730488650849 54.7335475873761)" fill="none" stroke="#0046aa" stroke-width="4.32" stroke-linecap="square" stroke-linejoin="bevel" d="M0 53.9932C6.77016 43.1264 19.5582 23.7218 23.108 17.3086C39.6777 -12.6263 56.108 2.66864 63.068 16.5886C70.028 30.5086 73.6393 38.5683 73.868 38.9086C86.0625 57.0576 95.468 52.7086 105.188 38.5486C114.908 24.3886 113.205 24.955 115.628 19.8286C123.284 3.63344 143.228 -14.0114 155.588 17.3086C167.948 48.6286 164.349 38.8082 165.308 40.7086C168.633 47.2989 175.167 52.6485 182.204 52.7056C188.655 52.7579 194.818 49.5059 200.214 39.4615" sodipodi:nodetypes="cszszszscc"/><path id="shape03" transform="matrix(0.999999978478436 0 0 0.975441874725966 -3.25446825724814 4.92895908641356)" fill="none" stroke="#f2f2f2" stroke-width="4.32" stroke-linecap="square" stroke-linejoin="bevel" d="M0 52.1481C10.8502 35.3351 18.0502 23.722 21.6 17.3088C38.1697 -12.6261 54.6 2.66882 61.56 16.5888C68.52 30.5088 72.1313 38.5685 72.36 38.9088C84.5545 57.0578 93.96 52.7088 103.68 38.5488C113.4 24.3888 111.697 24.9554 114.12 19.8288C121.775 3.63299 141.72 -14.0112 154.08 17.3088C166.44 48.6288 162.841 38.8085 163.8 40.7088C170.175 53.3405 187.08 60.6288 198.36 39.6288" sodipodi:nodetypes="cszszszcc"/><path id="shape04" transform="matrix(0.999999987984614 0 0 0.999999987984614 12.3442108544406 26.9326340933462)" fill="none" stroke="#404040" stroke-width="5.76" stroke-linecap="square" stroke-linejoin="miter" stroke-miterlimit="2" d="M0 0L2.35467 3.94566" sodipodi:nodetypes="cc"/><path id="shape3" transform="translate(9.99904587473434, 23.858130220343)" fill="none" stroke="#0046aa" stroke-width="4.32" stroke-linecap="square" stroke-linejoin="miter" stroke-miterlimit="2" d="M0 0L6.03 9.27" sodipodi:nodetypes="cc"/><path id="shape05" transform="matrix(0.999999993008594 0 0 -0.975441888899286 102.959999320415 35.4976280609061)" fill="none" stroke="#404040" stroke-width="5.76" stroke-linecap="square" stroke-linejoin="bevel" d="M0 16.1749C9.72 2.01485 6.42993 5.1264 8.85293 0" sodipodi:nodetypes="cc"/><path id="shape06" transform="matrix(1.00000000097559 0 0 -0.975441896670628 101.699999329704 37.1751361673405)" fill="none" stroke="#0046aa" stroke-width="4.32" stroke-linecap="square" stroke-linejoin="bevel" d="M0 19.8322C9.72 5.67218 8.332 5.1264 10.755 0" sodipodi:nodetypes="cc"/><ellipse id="shape4" transform="translate(88.379999542119, 58.1399999876248)" rx="7.92" ry="8.28" cx="7.92" cy="8.28" fill="none" stroke="#1a1a1a" stroke-width="5.76" stroke-linecap="square" stroke-linejoin="bevel"/><ellipse id="shape07" transform="matrix(0.999999994709158 0 0 0.999999994709158 116.420046496548 58.0974875068749)" rx="7.92" ry="8.28" cx="7.92" cy="8.28" fill="none" stroke="#333333" stroke-width="5.76" stroke-linecap="square" stroke-linejoin="bevel"/><path id="shape08" transform="matrix(0.999999974430173 0 0 0.999999974430173 94.1545443554827 17.9661613271652)" fill="#333333" fill-rule="evenodd" stroke-opacity="0" stroke="#000000" stroke-width="0" stroke-linecap="square" stroke-linejoin="bevel" d="M23.3154 57.2616C15.4374 42.5916 8.68949 27.81 0.811494 13.14C-1.28035 6.42816 1.07431 1.73173 3.33148 0L24.0855 39.51Z" sodipodi:nodetypes="ccccc"/><ellipse id="shape5" transform="translate(108.509116867129, 50.2327921678225)" rx="1.8" ry="1.8" cx="1.8" cy="1.8" fill="#cccccc" fill-rule="evenodd"/>
</svg>
